<?xml version="1.0" encoding="utf-8" standalone="no"?>
<!DOCTYPE svg PUBLIC "-//W3C//DTD SVG 1.1//EN"
  "http://www.w3.org/Graphics/SVG/1.1/DTD/svg11.dtd">
<svg xmlns:xlink="http://www.w3.org/1999/xlink" width="460.8pt" height="345.6pt" viewBox="0 0 460.8 345.6" xmlns="http://www.w3.org/2000/svg" version="1.1">
 <metadata>
  <rdf:RDF xmlns:dc="http://purl.org/dc/elements/1.1/" xmlns:cc="http://creativecommons.org/ns#" xmlns:rdf="http://www.w3.org/1999/02/22-rdf-syntax-ns#">
   <cc:Work>
    <dc:type rdf:resource="http://purl.org/dc/dcmitype/StillImage"/>
    <dc:date>2022-03-12T18:48:18.203120</dc:date>
    <dc:format>image/svg+xml</dc:format>
    <dc:creator>
     <cc:Agent>
      <dc:title>Matplotlib v3.5.1, https://matplotlib.org/</dc:title>
     </cc:Agent>
    </dc:creator>
   </cc:Work>
  </rdf:RDF>
 </metadata>
 <defs>
  <style type="text/css">*{stroke-linejoin: round; stroke-linecap: butt}</style>
 </defs>
 <g id="figure_1">
  <g id="patch_1">
   <path d="M 0 345.6 
L 460.8 345.6 
L 460.8 0 
L 0 0 
z
" style="fill: #ffffff"/>
  </g>
  <g id="axes_1">
   <g id="patch_2">
    <path d="M 57.6 307.584 
L 414.72 307.584 
L 414.72 41.472 
L 57.6 41.472 
z
" style="fill: #ffffff"/>
   </g>
   <g id="matplotlib.axis_1">
    <g id="xtick_1">
     <g id="line2d_1">
      <path d="M 73.832403 307.584 
L 73.832403 41.472 
" clip-path="url(#pb5a3c09934)" style="fill: none; stroke: #b0b0b0; stroke-width: 0.8; stroke-linecap: square"/>
     </g>
     <g id="line2d_2">
      <defs>
       <path id="m159926ab13" d="M 0 0 
L 0 3.5 
" style="stroke: #000000; stroke-width: 0.8"/>
      </defs>
      <g>
       <use xlink:href="#m159926ab13" x="73.832403" y="307.584" style="stroke: #000000; stroke-width: 0.8"/>
      </g>
     </g>
     <g id="text_1">
      <!-- 0.0 -->
      <g transform="translate(65.88084 322.182437)scale(0.1 -0.1)">
       <defs>
        <path id="DejaVuSans-30" d="M 2034 4250 
Q 1547 4250 1301 3770 
Q 1056 3291 1056 2328 
Q 1056 1369 1301 889 
Q 1547 409 2034 409 
Q 2525 409 2770 889 
Q 3016 1369 3016 2328 
Q 3016 3291 2770 3770 
Q 2525 4250 2034 4250 
z
M 2034 4750 
Q 2819 4750 3233 4129 
Q 3647 3509 3647 2328 
Q 3647 1150 3233 529 
Q 2819 -91 2034 -91 
Q 1250 -91 836 529 
Q 422 1150 422 2328 
Q 422 3509 836 4129 
Q 1250 4750 2034 4750 
z
" transform="scale(0.015625)"/>
        <path id="DejaVuSans-2e" d="M 684 794 
L 1344 794 
L 1344 0 
L 684 0 
L 684 794 
z
" transform="scale(0.015625)"/>
       </defs>
       <use xlink:href="#DejaVuSans-30"/>
       <use xlink:href="#DejaVuSans-2e" x="63.623047"/>
       <use xlink:href="#DejaVuSans-30" x="95.410156"/>
      </g>
     </g>
    </g>
    <g id="xtick_2">
     <g id="line2d_3">
      <path d="M 138.763377 307.584 
L 138.763377 41.472 
" clip-path="url(#pb5a3c09934)" style="fill: none; stroke: #b0b0b0; stroke-width: 0.8; stroke-linecap: square"/>
     </g>
     <g id="line2d_4">
      <g>
       <use xlink:href="#m159926ab13" x="138.763377" y="307.584" style="stroke: #000000; stroke-width: 0.8"/>
      </g>
     </g>
     <g id="text_2">
      <!-- 0.2 -->
      <g transform="translate(130.811814 322.182437)scale(0.1 -0.1)">
       <defs>
        <path id="DejaVuSans-32" d="M 1228 531 
L 3431 531 
L 3431 0 
L 469 0 
L 469 531 
Q 828 903 1448 1529 
Q 2069 2156 2228 2338 
Q 2531 2678 2651 2914 
Q 2772 3150 2772 3378 
Q 2772 3750 2511 3984 
Q 2250 4219 1831 4219 
Q 1534 4219 1204 4116 
Q 875 4013 500 3803 
L 500 4441 
Q 881 4594 1212 4672 
Q 1544 4750 1819 4750 
Q 2544 4750 2975 4387 
Q 3406 4025 3406 3419 
Q 3406 3131 3298 2873 
Q 3191 2616 2906 2266 
Q 2828 2175 2409 1742 
Q 1991 1309 1228 531 
z
" transform="scale(0.015625)"/>
       </defs>
       <use xlink:href="#DejaVuSans-30"/>
       <use xlink:href="#DejaVuSans-2e" x="63.623047"/>
       <use xlink:href="#DejaVuSans-32" x="95.410156"/>
      </g>
     </g>
    </g>
    <g id="xtick_3">
     <g id="line2d_5">
      <path d="M 203.694351 307.584 
L 203.694351 41.472 
" clip-path="url(#pb5a3c09934)" style="fill: none; stroke: #b0b0b0; stroke-width: 0.8; stroke-linecap: square"/>
     </g>
     <g id="line2d_6">
      <g>
       <use xlink:href="#m159926ab13" x="203.694351" y="307.584" style="stroke: #000000; stroke-width: 0.8"/>
      </g>
     </g>
     <g id="text_3">
      <!-- 0.4 -->
      <g transform="translate(195.742788 322.182437)scale(0.1 -0.1)">
       <defs>
        <path id="DejaVuSans-34" d="M 2419 4116 
L 825 1625 
L 2419 1625 
L 2419 4116 
z
M 2253 4666 
L 3047 4666 
L 3047 1625 
L 3713 1625 
L 3713 1100 
L 3047 1100 
L 3047 0 
L 2419 0 
L 2419 1100 
L 313 1100 
L 313 1709 
L 2253 4666 
z
" transform="scale(0.015625)"/>
       </defs>
       <use xlink:href="#DejaVuSans-30"/>
       <use xlink:href="#DejaVuSans-2e" x="63.623047"/>
       <use xlink:href="#DejaVuSans-34" x="95.410156"/>
      </g>
     </g>
    </g>
    <g id="xtick_4">
     <g id="line2d_7">
      <path d="M 268.625325 307.584 
L 268.625325 41.472 
" clip-path="url(#pb5a3c09934)" style="fill: none; stroke: #b0b0b0; stroke-width: 0.8; stroke-linecap: square"/>
     </g>
     <g id="line2d_8">
      <g>
       <use xlink:href="#m159926ab13" x="268.625325" y="307.584" style="stroke: #000000; stroke-width: 0.8"/>
      </g>
     </g>
     <g id="text_4">
      <!-- 0.6 -->
      <g transform="translate(260.673762 322.182437)scale(0.1 -0.1)">
       <defs>
        <path id="DejaVuSans-36" d="M 2113 2584 
Q 1688 2584 1439 2293 
Q 1191 2003 1191 1497 
Q 1191 994 1439 701 
Q 1688 409 2113 409 
Q 2538 409 2786 701 
Q 3034 994 3034 1497 
Q 3034 2003 2786 2293 
Q 2538 2584 2113 2584 
z
M 3366 4563 
L 3366 3988 
Q 3128 4100 2886 4159 
Q 2644 4219 2406 4219 
Q 1781 4219 1451 3797 
Q 1122 3375 1075 2522 
Q 1259 2794 1537 2939 
Q 1816 3084 2150 3084 
Q 2853 3084 3261 2657 
Q 3669 2231 3669 1497 
Q 3669 778 3244 343 
Q 2819 -91 2113 -91 
Q 1303 -91 875 529 
Q 447 1150 447 2328 
Q 447 3434 972 4092 
Q 1497 4750 2381 4750 
Q 2619 4750 2861 4703 
Q 3103 4656 3366 4563 
z
" transform="scale(0.015625)"/>
       </defs>
       <use xlink:href="#DejaVuSans-30"/>
       <use xlink:href="#DejaVuSans-2e" x="63.623047"/>
       <use xlink:href="#DejaVuSans-36" x="95.410156"/>
      </g>
     </g>
    </g>
    <g id="xtick_5">
     <g id="line2d_9">
      <path d="M 333.556299 307.584 
L 333.556299 41.472 
" clip-path="url(#pb5a3c09934)" style="fill: none; stroke: #b0b0b0; stroke-width: 0.8; stroke-linecap: square"/>
     </g>
     <g id="line2d_10">
      <g>
       <use xlink:href="#m159926ab13" x="333.556299" y="307.584" style="stroke: #000000; stroke-width: 0.8"/>
      </g>
     </g>
     <g id="text_5">
      <!-- 0.8 -->
      <g transform="translate(325.604736 322.182437)scale(0.1 -0.1)">
       <defs>
        <path id="DejaVuSans-38" d="M 2034 2216 
Q 1584 2216 1326 1975 
Q 1069 1734 1069 1313 
Q 1069 891 1326 650 
Q 1584 409 2034 409 
Q 2484 409 2743 651 
Q 3003 894 3003 1313 
Q 3003 1734 2745 1975 
Q 2488 2216 2034 2216 
z
M 1403 2484 
Q 997 2584 770 2862 
Q 544 3141 544 3541 
Q 544 4100 942 4425 
Q 1341 4750 2034 4750 
Q 2731 4750 3128 4425 
Q 3525 4100 3525 3541 
Q 3525 3141 3298 2862 
Q 3072 2584 2669 2484 
Q 3125 2378 3379 2068 
Q 3634 1759 3634 1313 
Q 3634 634 3220 271 
Q 2806 -91 2034 -91 
Q 1263 -91 848 271 
Q 434 634 434 1313 
Q 434 1759 690 2068 
Q 947 2378 1403 2484 
z
M 1172 3481 
Q 1172 3119 1398 2916 
Q 1625 2713 2034 2713 
Q 2441 2713 2670 2916 
Q 2900 3119 2900 3481 
Q 2900 3844 2670 4047 
Q 2441 4250 2034 4250 
Q 1625 4250 1398 4047 
Q 1172 3844 1172 3481 
z
" transform="scale(0.015625)"/>
       </defs>
       <use xlink:href="#DejaVuSans-30"/>
       <use xlink:href="#DejaVuSans-2e" x="63.623047"/>
       <use xlink:href="#DejaVuSans-38" x="95.410156"/>
      </g>
     </g>
    </g>
    <g id="xtick_6">
     <g id="line2d_11">
      <path d="M 398.487273 307.584 
L 398.487273 41.472 
" clip-path="url(#pb5a3c09934)" style="fill: none; stroke: #b0b0b0; stroke-width: 0.8; stroke-linecap: square"/>
     </g>
     <g id="line2d_12">
      <g>
       <use xlink:href="#m159926ab13" x="398.487273" y="307.584" style="stroke: #000000; stroke-width: 0.8"/>
      </g>
     </g>
     <g id="text_6">
      <!-- 1.0 -->
      <g transform="translate(390.53571 322.182437)scale(0.1 -0.1)">
       <defs>
        <path id="DejaVuSans-31" d="M 794 531 
L 1825 531 
L 1825 4091 
L 703 3866 
L 703 4441 
L 1819 4666 
L 2450 4666 
L 2450 531 
L 3481 531 
L 3481 0 
L 794 0 
L 794 531 
z
" transform="scale(0.015625)"/>
       </defs>
       <use xlink:href="#DejaVuSans-31"/>
       <use xlink:href="#DejaVuSans-2e" x="63.623047"/>
       <use xlink:href="#DejaVuSans-30" x="95.410156"/>
      </g>
     </g>
    </g>
    <g id="text_7">
     <!-- Interations -->
     <g transform="translate(209.177969 335.860562)scale(0.1 -0.1)">
      <defs>
       <path id="DejaVuSans-49" d="M 628 4666 
L 1259 4666 
L 1259 0 
L 628 0 
L 628 4666 
z
" transform="scale(0.015625)"/>
       <path id="DejaVuSans-6e" d="M 3513 2113 
L 3513 0 
L 2938 0 
L 2938 2094 
Q 2938 2591 2744 2837 
Q 2550 3084 2163 3084 
Q 1697 3084 1428 2787 
Q 1159 2491 1159 1978 
L 1159 0 
L 581 0 
L 581 3500 
L 1159 3500 
L 1159 2956 
Q 1366 3272 1645 3428 
Q 1925 3584 2291 3584 
Q 2894 3584 3203 3211 
Q 3513 2838 3513 2113 
z
" transform="scale(0.015625)"/>
       <path id="DejaVuSans-74" d="M 1172 4494 
L 1172 3500 
L 2356 3500 
L 2356 3053 
L 1172 3053 
L 1172 1153 
Q 1172 725 1289 603 
Q 1406 481 1766 481 
L 2356 481 
L 2356 0 
L 1766 0 
Q 1100 0 847 248 
Q 594 497 594 1153 
L 594 3053 
L 172 3053 
L 172 3500 
L 594 3500 
L 594 4494 
L 1172 4494 
z
" transform="scale(0.015625)"/>
       <path id="DejaVuSans-65" d="M 3597 1894 
L 3597 1613 
L 953 1613 
Q 991 1019 1311 708 
Q 1631 397 2203 397 
Q 2534 397 2845 478 
Q 3156 559 3463 722 
L 3463 178 
Q 3153 47 2828 -22 
Q 2503 -91 2169 -91 
Q 1331 -91 842 396 
Q 353 884 353 1716 
Q 353 2575 817 3079 
Q 1281 3584 2069 3584 
Q 2775 3584 3186 3129 
Q 3597 2675 3597 1894 
z
M 3022 2063 
Q 3016 2534 2758 2815 
Q 2500 3097 2075 3097 
Q 1594 3097 1305 2825 
Q 1016 2553 972 2059 
L 3022 2063 
z
" transform="scale(0.015625)"/>
       <path id="DejaVuSans-72" d="M 2631 2963 
Q 2534 3019 2420 3045 
Q 2306 3072 2169 3072 
Q 1681 3072 1420 2755 
Q 1159 2438 1159 1844 
L 1159 0 
L 581 0 
L 581 3500 
L 1159 3500 
L 1159 2956 
Q 1341 3275 1631 3429 
Q 1922 3584 2338 3584 
Q 2397 3584 2469 3576 
Q 2541 3569 2628 3553 
L 2631 2963 
z
" transform="scale(0.015625)"/>
       <path id="DejaVuSans-61" d="M 2194 1759 
Q 1497 1759 1228 1600 
Q 959 1441 959 1056 
Q 959 750 1161 570 
Q 1363 391 1709 391 
Q 2188 391 2477 730 
Q 2766 1069 2766 1631 
L 2766 1759 
L 2194 1759 
z
M 3341 1997 
L 3341 0 
L 2766 0 
L 2766 531 
Q 2569 213 2275 61 
Q 1981 -91 1556 -91 
Q 1019 -91 701 211 
Q 384 513 384 1019 
Q 384 1609 779 1909 
Q 1175 2209 1959 2209 
L 2766 2209 
L 2766 2266 
Q 2766 2663 2505 2880 
Q 2244 3097 1772 3097 
Q 1472 3097 1187 3025 
Q 903 2953 641 2809 
L 641 3341 
Q 956 3463 1253 3523 
Q 1550 3584 1831 3584 
Q 2591 3584 2966 3190 
Q 3341 2797 3341 1997 
z
" transform="scale(0.015625)"/>
       <path id="DejaVuSans-69" d="M 603 3500 
L 1178 3500 
L 1178 0 
L 603 0 
L 603 3500 
z
M 603 4863 
L 1178 4863 
L 1178 4134 
L 603 4134 
L 603 4863 
z
" transform="scale(0.015625)"/>
       <path id="DejaVuSans-6f" d="M 1959 3097 
Q 1497 3097 1228 2736 
Q 959 2375 959 1747 
Q 959 1119 1226 758 
Q 1494 397 1959 397 
Q 2419 397 2687 759 
Q 2956 1122 2956 1747 
Q 2956 2369 2687 2733 
Q 2419 3097 1959 3097 
z
M 1959 3584 
Q 2709 3584 3137 3096 
Q 3566 2609 3566 1747 
Q 3566 888 3137 398 
Q 2709 -91 1959 -91 
Q 1206 -91 779 398 
Q 353 888 353 1747 
Q 353 2609 779 3096 
Q 1206 3584 1959 3584 
z
" transform="scale(0.015625)"/>
       <path id="DejaVuSans-73" d="M 2834 3397 
L 2834 2853 
Q 2591 2978 2328 3040 
Q 2066 3103 1784 3103 
Q 1356 3103 1142 2972 
Q 928 2841 928 2578 
Q 928 2378 1081 2264 
Q 1234 2150 1697 2047 
L 1894 2003 
Q 2506 1872 2764 1633 
Q 3022 1394 3022 966 
Q 3022 478 2636 193 
Q 2250 -91 1575 -91 
Q 1294 -91 989 -36 
Q 684 19 347 128 
L 347 722 
Q 666 556 975 473 
Q 1284 391 1588 391 
Q 1994 391 2212 530 
Q 2431 669 2431 922 
Q 2431 1156 2273 1281 
Q 2116 1406 1581 1522 
L 1381 1569 
Q 847 1681 609 1914 
Q 372 2147 372 2553 
Q 372 3047 722 3315 
Q 1072 3584 1716 3584 
Q 2034 3584 2315 3537 
Q 2597 3491 2834 3397 
z
" transform="scale(0.015625)"/>
      </defs>
      <use xlink:href="#DejaVuSans-49"/>
      <use xlink:href="#DejaVuSans-6e" x="29.492188"/>
      <use xlink:href="#DejaVuSans-74" x="92.871094"/>
      <use xlink:href="#DejaVuSans-65" x="132.080078"/>
      <use xlink:href="#DejaVuSans-72" x="193.603516"/>
      <use xlink:href="#DejaVuSans-61" x="234.716797"/>
      <use xlink:href="#DejaVuSans-74" x="295.996094"/>
      <use xlink:href="#DejaVuSans-69" x="335.205078"/>
      <use xlink:href="#DejaVuSans-6f" x="362.988281"/>
      <use xlink:href="#DejaVuSans-6e" x="424.169922"/>
      <use xlink:href="#DejaVuSans-73" x="487.548828"/>
     </g>
    </g>
    <g id="text_8">
     <!-- 1e7 -->
     <g transform="translate(395.841875 334.860562)scale(0.1 -0.1)">
      <defs>
       <path id="DejaVuSans-37" d="M 525 4666 
L 3525 4666 
L 3525 4397 
L 1831 0 
L 1172 0 
L 2766 4134 
L 525 4134 
L 525 4666 
z
" transform="scale(0.015625)"/>
      </defs>
      <use xlink:href="#DejaVuSans-31"/>
      <use xlink:href="#DejaVuSans-65" x="63.623047"/>
      <use xlink:href="#DejaVuSans-37" x="125.146484"/>
     </g>
    </g>
   </g>
   <g id="matplotlib.axis_2">
    <g id="ytick_1">
     <g id="line2d_13">
      <path d="M 57.6 295.488 
L 414.72 295.488 
" clip-path="url(#pb5a3c09934)" style="fill: none; stroke: #b0b0b0; stroke-width: 0.8; stroke-linecap: square"/>
     </g>
     <g id="line2d_14">
      <defs>
       <path id="me8c9a0b51e" d="M 0 0 
L -3.5 0 
" style="stroke: #000000; stroke-width: 0.8"/>
      </defs>
      <g>
       <use xlink:href="#me8c9a0b51e" x="57.6" y="295.488" style="stroke: #000000; stroke-width: 0.8"/>
      </g>
     </g>
     <g id="text_9">
      <!-- 0 -->
      <g transform="translate(44.2375 299.287219)scale(0.1 -0.1)">
       <use xlink:href="#DejaVuSans-30"/>
      </g>
     </g>
    </g>
    <g id="ytick_2">
     <g id="line2d_15">
      <path d="M 57.6 262.8203 
L 414.72 262.8203 
" clip-path="url(#pb5a3c09934)" style="fill: none; stroke: #b0b0b0; stroke-width: 0.8; stroke-linecap: square"/>
     </g>
     <g id="line2d_16">
      <g>
       <use xlink:href="#me8c9a0b51e" x="57.6" y="262.8203" style="stroke: #000000; stroke-width: 0.8"/>
      </g>
     </g>
     <g id="text_10">
      <!-- 25000 -->
      <g transform="translate(18.7875 266.619519)scale(0.1 -0.1)">
       <defs>
        <path id="DejaVuSans-35" d="M 691 4666 
L 3169 4666 
L 3169 4134 
L 1269 4134 
L 1269 2991 
Q 1406 3038 1543 3061 
Q 1681 3084 1819 3084 
Q 2600 3084 3056 2656 
Q 3513 2228 3513 1497 
Q 3513 744 3044 326 
Q 2575 -91 1722 -91 
Q 1428 -91 1123 -41 
Q 819 9 494 109 
L 494 744 
Q 775 591 1075 516 
Q 1375 441 1709 441 
Q 2250 441 2565 725 
Q 2881 1009 2881 1497 
Q 2881 1984 2565 2268 
Q 2250 2553 1709 2553 
Q 1456 2553 1204 2497 
Q 953 2441 691 2322 
L 691 4666 
z
" transform="scale(0.015625)"/>
       </defs>
       <use xlink:href="#DejaVuSans-32"/>
       <use xlink:href="#DejaVuSans-35" x="63.623047"/>
       <use xlink:href="#DejaVuSans-30" x="127.246094"/>
       <use xlink:href="#DejaVuSans-30" x="190.869141"/>
       <use xlink:href="#DejaVuSans-30" x="254.492188"/>
      </g>
     </g>
    </g>
    <g id="ytick_3">
     <g id="line2d_17">
      <path d="M 57.6 230.1526 
L 414.72 230.1526 
" clip-path="url(#pb5a3c09934)" style="fill: none; stroke: #b0b0b0; stroke-width: 0.8; stroke-linecap: square"/>
     </g>
     <g id="line2d_18">
      <g>
       <use xlink:href="#me8c9a0b51e" x="57.6" y="230.1526" style="stroke: #000000; stroke-width: 0.8"/>
      </g>
     </g>
     <g id="text_11">
      <!-- 50000 -->
      <g transform="translate(18.7875 233.951818)scale(0.1 -0.1)">
       <use xlink:href="#DejaVuSans-35"/>
       <use xlink:href="#DejaVuSans-30" x="63.623047"/>
       <use xlink:href="#DejaVuSans-30" x="127.246094"/>
       <use xlink:href="#DejaVuSans-30" x="190.869141"/>
       <use xlink:href="#DejaVuSans-30" x="254.492188"/>
      </g>
     </g>
    </g>
    <g id="ytick_4">
     <g id="line2d_19">
      <path d="M 57.6 197.4849 
L 414.72 197.4849 
" clip-path="url(#pb5a3c09934)" style="fill: none; stroke: #b0b0b0; stroke-width: 0.8; stroke-linecap: square"/>
     </g>
     <g id="line2d_20">
      <g>
       <use xlink:href="#me8c9a0b51e" x="57.6" y="197.4849" style="stroke: #000000; stroke-width: 0.8"/>
      </g>
     </g>
     <g id="text_12">
      <!-- 75000 -->
      <g transform="translate(18.7875 201.284118)scale(0.1 -0.1)">
       <use xlink:href="#DejaVuSans-37"/>
       <use xlink:href="#DejaVuSans-35" x="63.623047"/>
       <use xlink:href="#DejaVuSans-30" x="127.246094"/>
       <use xlink:href="#DejaVuSans-30" x="190.869141"/>
       <use xlink:href="#DejaVuSans-30" x="254.492188"/>
      </g>
     </g>
    </g>
    <g id="ytick_5">
     <g id="line2d_21">
      <path d="M 57.6 164.817199 
L 414.72 164.817199 
" clip-path="url(#pb5a3c09934)" style="fill: none; stroke: #b0b0b0; stroke-width: 0.8; stroke-linecap: square"/>
     </g>
     <g id="line2d_22">
      <g>
       <use xlink:href="#me8c9a0b51e" x="57.6" y="164.817199" style="stroke: #000000; stroke-width: 0.8"/>
      </g>
     </g>
     <g id="text_13">
      <!-- 100000 -->
      <g transform="translate(12.425 168.616418)scale(0.1 -0.1)">
       <use xlink:href="#DejaVuSans-31"/>
       <use xlink:href="#DejaVuSans-30" x="63.623047"/>
       <use xlink:href="#DejaVuSans-30" x="127.246094"/>
       <use xlink:href="#DejaVuSans-30" x="190.869141"/>
       <use xlink:href="#DejaVuSans-30" x="254.492188"/>
       <use xlink:href="#DejaVuSans-30" x="318.115234"/>
      </g>
     </g>
    </g>
    <g id="ytick_6">
     <g id="line2d_23">
      <path d="M 57.6 132.149499 
L 414.72 132.149499 
" clip-path="url(#pb5a3c09934)" style="fill: none; stroke: #b0b0b0; stroke-width: 0.8; stroke-linecap: square"/>
     </g>
     <g id="line2d_24">
      <g>
       <use xlink:href="#me8c9a0b51e" x="57.6" y="132.149499" style="stroke: #000000; stroke-width: 0.8"/>
      </g>
     </g>
     <g id="text_14">
      <!-- 125000 -->
      <g transform="translate(12.425 135.948718)scale(0.1 -0.1)">
       <use xlink:href="#DejaVuSans-31"/>
       <use xlink:href="#DejaVuSans-32" x="63.623047"/>
       <use xlink:href="#DejaVuSans-35" x="127.246094"/>
       <use xlink:href="#DejaVuSans-30" x="190.869141"/>
       <use xlink:href="#DejaVuSans-30" x="254.492188"/>
       <use xlink:href="#DejaVuSans-30" x="318.115234"/>
      </g>
     </g>
    </g>
    <g id="ytick_7">
     <g id="line2d_25">
      <path d="M 57.6 99.481799 
L 414.72 99.481799 
" clip-path="url(#pb5a3c09934)" style="fill: none; stroke: #b0b0b0; stroke-width: 0.8; stroke-linecap: square"/>
     </g>
     <g id="line2d_26">
      <g>
       <use xlink:href="#me8c9a0b51e" x="57.6" y="99.481799" style="stroke: #000000; stroke-width: 0.8"/>
      </g>
     </g>
     <g id="text_15">
      <!-- 150000 -->
      <g transform="translate(12.425 103.281018)scale(0.1 -0.1)">
       <use xlink:href="#DejaVuSans-31"/>
       <use xlink:href="#DejaVuSans-35" x="63.623047"/>
       <use xlink:href="#DejaVuSans-30" x="127.246094"/>
       <use xlink:href="#DejaVuSans-30" x="190.869141"/>
       <use xlink:href="#DejaVuSans-30" x="254.492188"/>
       <use xlink:href="#DejaVuSans-30" x="318.115234"/>
      </g>
     </g>
    </g>
    <g id="ytick_8">
     <g id="line2d_27">
      <path d="M 57.6 66.814099 
L 414.72 66.814099 
" clip-path="url(#pb5a3c09934)" style="fill: none; stroke: #b0b0b0; stroke-width: 0.8; stroke-linecap: square"/>
     </g>
     <g id="line2d_28">
      <g>
       <use xlink:href="#me8c9a0b51e" x="57.6" y="66.814099" style="stroke: #000000; stroke-width: 0.8"/>
      </g>
     </g>
     <g id="text_16">
      <!-- 175000 -->
      <g transform="translate(12.425 70.613318)scale(0.1 -0.1)">
       <use xlink:href="#DejaVuSans-31"/>
       <use xlink:href="#DejaVuSans-37" x="63.623047"/>
       <use xlink:href="#DejaVuSans-35" x="127.246094"/>
       <use xlink:href="#DejaVuSans-30" x="190.869141"/>
       <use xlink:href="#DejaVuSans-30" x="254.492188"/>
       <use xlink:href="#DejaVuSans-30" x="318.115234"/>
      </g>
     </g>
    </g>
    <g id="text_17">
     <!-- Time (ms) -->
     <g transform="translate(6.345312 199.727219)rotate(-90)scale(0.1 -0.1)">
      <defs>
       <path id="DejaVuSans-54" d="M -19 4666 
L 3928 4666 
L 3928 4134 
L 2272 4134 
L 2272 0 
L 1638 0 
L 1638 4134 
L -19 4134 
L -19 4666 
z
" transform="scale(0.015625)"/>
       <path id="DejaVuSans-6d" d="M 3328 2828 
Q 3544 3216 3844 3400 
Q 4144 3584 4550 3584 
Q 5097 3584 5394 3201 
Q 5691 2819 5691 2113 
L 5691 0 
L 5113 0 
L 5113 2094 
Q 5113 2597 4934 2840 
Q 4756 3084 4391 3084 
Q 3944 3084 3684 2787 
Q 3425 2491 3425 1978 
L 3425 0 
L 2847 0 
L 2847 2094 
Q 2847 2600 2669 2842 
Q 2491 3084 2119 3084 
Q 1678 3084 1418 2786 
Q 1159 2488 1159 1978 
L 1159 0 
L 581 0 
L 581 3500 
L 1159 3500 
L 1159 2956 
Q 1356 3278 1631 3431 
Q 1906 3584 2284 3584 
Q 2666 3584 2933 3390 
Q 3200 3197 3328 2828 
z
" transform="scale(0.015625)"/>
       <path id="DejaVuSans-20" transform="scale(0.015625)"/>
       <path id="DejaVuSans-28" d="M 1984 4856 
Q 1566 4138 1362 3434 
Q 1159 2731 1159 2009 
Q 1159 1288 1364 580 
Q 1569 -128 1984 -844 
L 1484 -844 
Q 1016 -109 783 600 
Q 550 1309 550 2009 
Q 550 2706 781 3412 
Q 1013 4119 1484 4856 
L 1984 4856 
z
" transform="scale(0.015625)"/>
       <path id="DejaVuSans-29" d="M 513 4856 
L 1013 4856 
Q 1481 4119 1714 3412 
Q 1947 2706 1947 2009 
Q 1947 1309 1714 600 
Q 1481 -109 1013 -844 
L 513 -844 
Q 928 -128 1133 580 
Q 1338 1288 1338 2009 
Q 1338 2731 1133 3434 
Q 928 4138 513 4856 
z
" transform="scale(0.015625)"/>
      </defs>
      <use xlink:href="#DejaVuSans-54"/>
      <use xlink:href="#DejaVuSans-69" x="57.958984"/>
      <use xlink:href="#DejaVuSans-6d" x="85.742188"/>
      <use xlink:href="#DejaVuSans-65" x="183.154297"/>
      <use xlink:href="#DejaVuSans-20" x="244.677734"/>
      <use xlink:href="#DejaVuSans-28" x="276.464844"/>
      <use xlink:href="#DejaVuSans-6d" x="315.478516"/>
      <use xlink:href="#DejaVuSans-73" x="412.890625"/>
      <use xlink:href="#DejaVuSans-29" x="464.990234"/>
     </g>
    </g>
   </g>
   <g id="line2d_29">
    <path d="M 73.832727 295.488 
L 73.832955 295.488 
L 73.833409 295.488 
L 73.834221 295.488 
L 73.835649 295.488 
L 73.838149 295.488 
L 73.842662 295.488 
L 73.850648 295.488 
L 73.864868 295.488 
L 73.890126 295.488 
L 73.935058 295.488 
L 74.014956 295.468399 
L 74.157057 295.488 
L 74.409704 295.468399 
L 74.859026 295.448799 
L 75.658067 295.427891 
L 77.078951 295.386077 
L 79.605643 295.303754 
L 84.098866 295.161323 
L 92.089077 294.875154 
L 106.29789 294.468768 
L 131.565096 293.691276 
L 176.497265 292.140214 
L 256.399244 288.301106 
L 398.487273 283.218012 
" clip-path="url(#pb5a3c09934)" style="fill: none; stroke: #5b69b8; stroke-width: 1.5; stroke-linecap: square"/>
   </g>
   <g id="line2d_30">
    <path d="M 73.832727 295.47232 
L 73.832955 295.48408 
L 73.833409 295.482773 
L 73.834221 295.48408 
L 73.835649 295.48408 
L 73.838149 295.48408 
L 73.842662 295.482773 
L 73.850648 295.482773 
L 73.864868 295.482773 
L 73.890126 295.477546 
L 73.935058 295.481466 
L 74.014956 295.477546 
L 74.157057 295.471013 
L 74.409704 295.459252 
L 74.859026 295.448799 
L 75.658067 295.425278 
L 77.078951 295.378237 
L 79.605643 295.259326 
L 84.098866 295.092067 
L 92.089077 294.76539 
L 106.29789 294.191746 
L 131.565096 293.192114 
L 176.497265 291.162797 
L 256.399244 287.677806 
L 398.487273 281.455263 
" clip-path="url(#pb5a3c09934)" style="fill: none; stroke: #652076; stroke-width: 1.5; stroke-linecap: square"/>
   </g>
   <g id="line2d_31">
    <path d="M 73.832727 295.485387 
L 73.832955 295.482773 
L 73.833409 295.478853 
L 73.834221 295.478853 
L 73.835649 295.478853 
L 73.838149 295.47624 
L 73.842662 295.469706 
L 73.850648 295.457946 
L 73.864868 295.446185 
L 73.890126 295.434425 
L 73.935058 295.405677 
L 74.014956 295.387383 
L 74.157057 295.36909 
L 74.409704 295.323355 
L 74.859026 295.250179 
L 75.658067 295.038492 
L 77.078951 294.711815 
L 79.605643 294.311963 
L 84.098866 293.672983 
L 92.089077 291.817457 
L 106.29789 290.535577 
L 131.565096 285.984313 
L 176.497265 278.164972 
L 256.399244 258.974658 
L 398.487273 205.029832 
" clip-path="url(#pb5a3c09934)" style="fill: none; stroke: #63b132; stroke-width: 1.5; stroke-linecap: square"/>
   </g>
   <g id="line2d_32">
    <path d="M 73.832727 295.488 
L 73.832955 295.488 
L 73.833409 295.488 
L 73.834221 295.488 
L 73.835649 295.488 
L 73.838149 295.488 
L 73.842662 295.486693 
L 73.850648 295.486693 
L 73.864868 295.486693 
L 73.890126 295.485387 
L 73.935058 295.48408 
L 74.014956 295.478853 
L 74.157057 295.478853 
L 74.409704 295.473626 
L 74.859026 295.467093 
L 75.658067 295.455332 
L 77.078951 295.425278 
L 79.605643 295.378237 
L 84.098866 295.306368 
L 92.089077 295.086841 
L 106.29789 294.837259 
L 131.565096 294.193052 
L 176.497265 293.243076 
L 256.399244 291.531288 
L 398.487273 288.498419 
" clip-path="url(#pb5a3c09934)" style="fill: none; stroke: #70c8d6; stroke-width: 1.5; stroke-linecap: square"/>
   </g>
   <g id="line2d_33">
    <path d="M 73.832727 295.455332 
L 73.832955 295.456639 
L 73.833409 295.450105 
L 73.834221 295.451412 
L 73.835649 295.455332 
L 73.838149 295.455332 
L 73.842662 295.455332 
L 73.850648 295.454026 
L 73.864868 295.451412 
L 73.890126 295.450105 
L 73.935058 295.452719 
L 74.014956 295.451412 
L 74.157057 295.447492 
L 74.409704 295.439652 
L 74.859026 295.438345 
L 75.658067 295.400451 
L 77.078951 295.403064 
L 79.605643 295.366476 
L 84.098866 295.28154 
L 92.089077 295.140416 
L 106.29789 294.94833 
L 131.565096 294.386445 
L 176.497265 293.918644 
L 256.399244 292.674658 
L 398.487273 290.509442 
" clip-path="url(#pb5a3c09934)" style="fill: none; stroke: #f0931c; stroke-width: 1.5; stroke-linecap: square"/>
   </g>
   <g id="line2d_34">
    <path d="M 73.832727 295.452719 
L 73.832955 295.451412 
L 73.833409 295.446185 
L 73.834221 295.450105 
L 73.835649 295.448799 
L 73.838149 295.451412 
L 73.842662 295.448799 
L 73.850648 295.444879 
L 73.864868 295.446185 
L 73.890126 295.443572 
L 73.935058 295.433118 
L 74.014956 295.438345 
L 74.157057 295.429198 
L 74.409704 295.397837 
L 74.859026 295.39653 
L 75.658067 295.337729 
L 77.078951 295.26586 
L 79.605643 294.711815 
L 84.098866 294.050621 
L 92.089077 292.545294 
L 106.29789 290.52643 
L 131.565096 287.411238 
L 176.497265 279.390664 
L 256.399244 265.823115 
L 398.487273 240.831018 
" clip-path="url(#pb5a3c09934)" style="fill: none; stroke-dasharray: 5.55,2.4; stroke-dashoffset: 0; stroke: #f0931c; stroke-width: 1.5"/>
   </g>
   <g id="line2d_35">
    <path d="M 73.832727 295.452719 
L 73.832955 295.451412 
L 73.833409 295.447492 
L 73.834221 295.447492 
L 73.835649 295.451412 
L 73.838149 295.443572 
L 73.842662 295.447492 
L 73.850648 295.446185 
L 73.864868 295.444879 
L 73.890126 295.442265 
L 73.935058 295.439652 
L 74.014956 295.427891 
L 74.157057 295.426585 
L 74.409704 295.37693 
L 74.859026 295.374316 
L 75.658067 295.275007 
L 77.078951 295.235805 
L 79.605643 294.854247 
L 84.098866 294.53541 
L 92.089077 293.419481 
L 106.29789 292.247364 
L 131.565096 267.46826 
L 176.497265 233.666338 
L 256.399244 172.769824 
L 398.487273 53.568 
" clip-path="url(#pb5a3c09934)" style="fill: none; stroke-dasharray: 1.5,2.475; stroke-dashoffset: 0; stroke: #f0931c; stroke-width: 1.5"/>
   </g>
   <g id="line2d_36">
    <path d="M 73.832727 295.451412 
L 73.832955 295.447492 
L 73.833409 295.440959 
L 73.834221 295.451412 
L 73.835649 295.425278 
L 73.838149 295.452719 
L 73.842662 295.447492 
L 73.850648 295.451412 
L 73.864868 295.425278 
L 73.890126 295.448799 
L 73.935058 295.446185 
L 74.014956 295.440959 
L 74.157057 295.438345 
L 74.409704 295.421358 
L 74.859026 295.404371 
L 75.658067 295.413518 
L 77.078951 295.406984 
L 79.605643 295.367783 
L 84.098866 295.302447 
L 92.089077 295.180924 
L 106.29789 294.95225 
L 131.565096 294.476608 
L 176.497265 293.473056 
L 256.399244 292.511319 
L 398.487273 287.737915 
" clip-path="url(#pb5a3c09934)" style="fill: none; stroke-dasharray: 5.55,2.4; stroke-dashoffset: 0; stroke: #a57e6a; stroke-width: 1.5"/>
   </g>
   <g id="line2d_37">
    <path d="M 73.832727 295.452719 
L 73.832955 295.451412 
L 73.833409 295.452719 
L 73.834221 295.451412 
L 73.835649 295.450105 
L 73.838149 295.448799 
L 73.842662 295.442265 
L 73.850648 295.446185 
L 73.864868 295.448799 
L 73.890126 295.451412 
L 73.935058 295.447492 
L 74.014956 295.444879 
L 74.157057 295.435732 
L 74.409704 295.427891 
L 74.859026 295.408291 
L 75.658067 295.366476 
L 77.078951 295.318128 
L 79.605643 295.230579 
L 84.098866 295.082921 
L 92.089077 294.743176 
L 106.29789 294.067608 
L 131.565096 292.847143 
L 176.497265 290.620513 
L 256.399244 285.980393 
L 398.487273 256.964941 
" clip-path="url(#pb5a3c09934)" style="fill: none; stroke: #a57e6a; stroke-width: 1.5; stroke-linecap: square"/>
   </g>
   <g id="line2d_38">
    <path d="M 73.832727 295.452719 
L 73.832955 295.454026 
L 73.833409 295.452719 
L 73.834221 295.444879 
L 73.835649 295.451412 
L 73.838149 295.452719 
L 73.842662 295.450105 
L 73.850648 295.447492 
L 73.864868 295.446185 
L 73.890126 295.444879 
L 73.935058 295.442265 
L 74.014956 295.439652 
L 74.157057 295.431812 
L 74.409704 295.422665 
L 74.859026 295.406984 
L 75.658067 295.382157 
L 77.078951 295.278927 
L 79.605643 294.800672 
L 84.098866 294.357698 
L 92.089077 293.504417 
L 106.29789 291.979489 
L 131.565096 289.238016 
L 176.497265 284.337861 
L 256.399244 276.012824 
L 398.487273 252.437198 
" clip-path="url(#pb5a3c09934)" style="fill: none; stroke-dasharray: 9.6,2.4,1.5,2.4; stroke-dashoffset: 0; stroke: #f0931c; stroke-width: 1.5"/>
   </g>
   <g id="line2d_39">
    <path d="M 73.832727 295.485387 
L 73.832955 295.486693 
L 73.833409 295.486693 
L 73.834221 295.485387 
L 73.835649 295.485387 
L 73.838149 295.48408 
L 73.842662 295.48408 
L 73.850648 295.48016 
L 73.864868 295.48016 
L 73.890126 295.478853 
L 73.935058 295.478853 
L 74.014956 295.47624 
L 74.157057 295.469706 
L 74.409704 295.464479 
L 74.859026 295.452719 
L 75.658067 295.440959 
L 77.078951 295.401757 
L 79.605643 295.353409 
L 84.098866 295.260633 
L 92.089077 295.080307 
L 106.29789 294.760164 
L 131.565096 294.187826 
L 176.497265 293.214328 
L 256.399244 291.464646 
L 398.487273 287.565429 
" clip-path="url(#pb5a3c09934)" style="fill: none; stroke: #ff007f; stroke-width: 1.5; stroke-linecap: square"/>
   </g>
   <g id="line2d_40">
    <path d="M 73.832727 295.488 
L 73.832955 295.488 
L 73.833409 295.486693 
L 73.834221 295.488 
L 73.835649 295.486693 
L 73.838149 295.488 
L 73.842662 295.485387 
L 73.850648 295.481466 
L 73.864868 295.478853 
L 73.890126 295.47232 
L 73.935058 295.460559 
L 74.014956 295.435732 
L 74.157057 295.399144 
L 74.409704 295.312901 
L 74.859026 295.212285 
L 75.658067 295.012358 
L 77.078951 294.463541 
L 79.605643 293.950005 
L 84.098866 292.699485 
L 92.089077 290.11743 
L 106.29789 287.219152 
L 131.565096 280.245251 
L 176.497265 267.110222 
" clip-path="url(#pb5a3c09934)" style="fill: none; stroke: #00007c; stroke-width: 1.5; stroke-linecap: square"/>
   </g>
   <g id="line2d_41">
    <path d="M 73.832727 295.486693 
L 73.832955 295.486693 
L 73.833409 295.486693 
L 73.834221 295.486693 
L 73.835649 295.488 
L 73.838149 295.485387 
L 73.842662 295.482773 
L 73.850648 295.48016 
L 73.864868 295.47232 
L 73.890126 295.460559 
L 73.935058 295.439652 
L 74.014956 295.399144 
L 74.157057 295.341649 
L 74.409704 295.209671 
L 74.859026 294.983611 
L 75.658067 294.624266 
L 77.078951 293.944778 
L 79.605643 292.754367 
L 84.098866 290.455867 
L 92.089077 286.757884 
L 106.29789 279.870226 
L 131.565096 268.057586 
L 176.497265 245.750773 
L 256.399244 208.56709 
L 398.487273 137.667727 
" clip-path="url(#pb5a3c09934)" style="fill: none; stroke: #f7cc40; stroke-width: 1.5; stroke-linecap: square"/>
   </g>
   <g id="line2d_42">
    <path d="M 73.832727 295.488 
L 73.832955 295.488 
L 73.833409 295.488 
L 73.834221 295.488 
L 73.835649 295.488 
L 73.838149 295.488 
L 73.842662 295.488 
L 73.850648 295.486693 
L 73.864868 295.485387 
L 73.890126 295.48016 
L 73.935058 295.474933 
L 74.014956 295.463173 
L 74.157057 295.450105 
L 74.409704 295.421358 
L 74.859026 295.36909 
L 75.658067 295.278927 
L 77.078951 295.090761 
L 79.605643 294.758857 
L 84.098866 294.227027 
L 92.089077 293.299264 
L 106.29789 291.540435 
L 131.565096 288.221397 
L 176.497265 282.32161 
L 256.399244 272.186783 
L 398.487273 254.172506 
" clip-path="url(#pb5a3c09934)" style="fill: none; stroke: #dd3516; stroke-width: 1.5; stroke-linecap: square"/>
   </g>
   <g id="line2d_43">
    <path d="M 73.832727 295.478853 
L 73.832955 295.486693 
L 73.833409 295.485387 
L 73.834221 295.48408 
L 73.835649 295.478853 
L 73.838149 295.485387 
L 73.842662 295.482773 
L 73.850648 295.481466 
L 73.864868 295.478853 
L 73.890126 295.48016 
L 73.935058 295.478853 
L 74.014956 295.477546 
L 74.157057 295.474933 
L 74.409704 295.454026 
L 74.859026 295.448799 
L 75.658067 295.412211 
L 77.078951 295.356022 
L 79.605643 295.255406 
L 84.098866 295.110361 
L 92.089077 294.728803 
L 106.29789 294.11073 
L 131.565096 293.096724 
L 176.497265 290.519896 
L 256.399244 287.438679 
L 398.487273 280.518353 
" clip-path="url(#pb5a3c09934)" style="fill: none; stroke-dasharray: 5.55,2.4; stroke-dashoffset: 0; stroke: #0076c6; stroke-width: 1.5"/>
   </g>
   <g id="line2d_44">
    <path d="M 73.832727 295.485387 
L 73.832955 295.486693 
L 73.833409 295.485387 
L 73.834221 295.486693 
L 73.835649 295.485387 
L 73.838149 295.485387 
L 73.842662 295.485387 
L 73.850648 295.48408 
L 73.864868 295.481466 
L 73.890126 295.482773 
L 73.935058 295.468399 
L 74.014956 295.468399 
L 74.157057 295.468399 
L 74.409704 295.463173 
L 74.859026 295.438345 
L 75.658067 295.406984 
L 77.078951 295.38085 
L 79.605643 295.310288 
L 84.098866 295.062013 
L 92.089077 294.706589 
L 106.29789 293.8128 
L 131.565096 291.933754 
L 176.497265 289.05769 
L 256.399244 284.579602 
L 398.487273 273.976973 
" clip-path="url(#pb5a3c09934)" style="fill: none; stroke: #0076c6; stroke-width: 1.5; stroke-linecap: square"/>
   </g>
   <g id="patch_3">
    <path d="M 57.6 307.584 
L 57.6 41.472 
" style="fill: none; stroke: #000000; stroke-width: 0.8; stroke-linejoin: miter; stroke-linecap: square"/>
   </g>
   <g id="patch_4">
    <path d="M 414.72 307.584 
L 414.72 41.472 
" style="fill: none; stroke: #000000; stroke-width: 0.8; stroke-linejoin: miter; stroke-linecap: square"/>
   </g>
   <g id="patch_5">
    <path d="M 57.6 307.584 
L 414.72 307.584 
" style="fill: none; stroke: #000000; stroke-width: 0.8; stroke-linejoin: miter; stroke-linecap: square"/>
   </g>
   <g id="patch_6">
    <path d="M 57.6 41.472 
L 414.72 41.472 
" style="fill: none; stroke: #000000; stroke-width: 0.8; stroke-linejoin: miter; stroke-linecap: square"/>
   </g>
   <g id="text_18">
    <!-- x0 = 0.1, r = 3.91, Repetitions = 100 -->
    <g transform="translate(124.089375 35.472)scale(0.12 -0.12)">
     <defs>
      <path id="DejaVuSans-78" d="M 3513 3500 
L 2247 1797 
L 3578 0 
L 2900 0 
L 1881 1375 
L 863 0 
L 184 0 
L 1544 1831 
L 300 3500 
L 978 3500 
L 1906 2253 
L 2834 3500 
L 3513 3500 
z
" transform="scale(0.015625)"/>
      <path id="DejaVuSans-3d" d="M 678 2906 
L 4684 2906 
L 4684 2381 
L 678 2381 
L 678 2906 
z
M 678 1631 
L 4684 1631 
L 4684 1100 
L 678 1100 
L 678 1631 
z
" transform="scale(0.015625)"/>
      <path id="DejaVuSans-2c" d="M 750 794 
L 1409 794 
L 1409 256 
L 897 -744 
L 494 -744 
L 750 256 
L 750 794 
z
" transform="scale(0.015625)"/>
      <path id="DejaVuSans-33" d="M 2597 2516 
Q 3050 2419 3304 2112 
Q 3559 1806 3559 1356 
Q 3559 666 3084 287 
Q 2609 -91 1734 -91 
Q 1441 -91 1130 -33 
Q 819 25 488 141 
L 488 750 
Q 750 597 1062 519 
Q 1375 441 1716 441 
Q 2309 441 2620 675 
Q 2931 909 2931 1356 
Q 2931 1769 2642 2001 
Q 2353 2234 1838 2234 
L 1294 2234 
L 1294 2753 
L 1863 2753 
Q 2328 2753 2575 2939 
Q 2822 3125 2822 3475 
Q 2822 3834 2567 4026 
Q 2313 4219 1838 4219 
Q 1578 4219 1281 4162 
Q 984 4106 628 3988 
L 628 4550 
Q 988 4650 1302 4700 
Q 1616 4750 1894 4750 
Q 2613 4750 3031 4423 
Q 3450 4097 3450 3541 
Q 3450 3153 3228 2886 
Q 3006 2619 2597 2516 
z
" transform="scale(0.015625)"/>
      <path id="DejaVuSans-39" d="M 703 97 
L 703 672 
Q 941 559 1184 500 
Q 1428 441 1663 441 
Q 2288 441 2617 861 
Q 2947 1281 2994 2138 
Q 2813 1869 2534 1725 
Q 2256 1581 1919 1581 
Q 1219 1581 811 2004 
Q 403 2428 403 3163 
Q 403 3881 828 4315 
Q 1253 4750 1959 4750 
Q 2769 4750 3195 4129 
Q 3622 3509 3622 2328 
Q 3622 1225 3098 567 
Q 2575 -91 1691 -91 
Q 1453 -91 1209 -44 
Q 966 3 703 97 
z
M 1959 2075 
Q 2384 2075 2632 2365 
Q 2881 2656 2881 3163 
Q 2881 3666 2632 3958 
Q 2384 4250 1959 4250 
Q 1534 4250 1286 3958 
Q 1038 3666 1038 3163 
Q 1038 2656 1286 2365 
Q 1534 2075 1959 2075 
z
" transform="scale(0.015625)"/>
      <path id="DejaVuSans-52" d="M 2841 2188 
Q 3044 2119 3236 1894 
Q 3428 1669 3622 1275 
L 4263 0 
L 3584 0 
L 2988 1197 
Q 2756 1666 2539 1819 
Q 2322 1972 1947 1972 
L 1259 1972 
L 1259 0 
L 628 0 
L 628 4666 
L 2053 4666 
Q 2853 4666 3247 4331 
Q 3641 3997 3641 3322 
Q 3641 2881 3436 2590 
Q 3231 2300 2841 2188 
z
M 1259 4147 
L 1259 2491 
L 2053 2491 
Q 2509 2491 2742 2702 
Q 2975 2913 2975 3322 
Q 2975 3731 2742 3939 
Q 2509 4147 2053 4147 
L 1259 4147 
z
" transform="scale(0.015625)"/>
      <path id="DejaVuSans-70" d="M 1159 525 
L 1159 -1331 
L 581 -1331 
L 581 3500 
L 1159 3500 
L 1159 2969 
Q 1341 3281 1617 3432 
Q 1894 3584 2278 3584 
Q 2916 3584 3314 3078 
Q 3713 2572 3713 1747 
Q 3713 922 3314 415 
Q 2916 -91 2278 -91 
Q 1894 -91 1617 61 
Q 1341 213 1159 525 
z
M 3116 1747 
Q 3116 2381 2855 2742 
Q 2594 3103 2138 3103 
Q 1681 3103 1420 2742 
Q 1159 2381 1159 1747 
Q 1159 1113 1420 752 
Q 1681 391 2138 391 
Q 2594 391 2855 752 
Q 3116 1113 3116 1747 
z
" transform="scale(0.015625)"/>
     </defs>
     <use xlink:href="#DejaVuSans-78"/>
     <use xlink:href="#DejaVuSans-30" x="59.179688"/>
     <use xlink:href="#DejaVuSans-20" x="122.802734"/>
     <use xlink:href="#DejaVuSans-3d" x="154.589844"/>
     <use xlink:href="#DejaVuSans-20" x="238.378906"/>
     <use xlink:href="#DejaVuSans-30" x="270.166016"/>
     <use xlink:href="#DejaVuSans-2e" x="333.789062"/>
     <use xlink:href="#DejaVuSans-31" x="365.576172"/>
     <use xlink:href="#DejaVuSans-2c" x="429.199219"/>
     <use xlink:href="#DejaVuSans-20" x="460.986328"/>
     <use xlink:href="#DejaVuSans-72" x="492.773438"/>
     <use xlink:href="#DejaVuSans-20" x="533.886719"/>
     <use xlink:href="#DejaVuSans-3d" x="565.673828"/>
     <use xlink:href="#DejaVuSans-20" x="649.462891"/>
     <use xlink:href="#DejaVuSans-33" x="681.25"/>
     <use xlink:href="#DejaVuSans-2e" x="744.873047"/>
     <use xlink:href="#DejaVuSans-39" x="776.660156"/>
     <use xlink:href="#DejaVuSans-31" x="840.283203"/>
     <use xlink:href="#DejaVuSans-2c" x="903.90625"/>
     <use xlink:href="#DejaVuSans-20" x="935.693359"/>
     <use xlink:href="#DejaVuSans-52" x="967.480469"/>
     <use xlink:href="#DejaVuSans-65" x="1032.462891"/>
     <use xlink:href="#DejaVuSans-70" x="1093.986328"/>
     <use xlink:href="#DejaVuSans-65" x="1157.462891"/>
     <use xlink:href="#DejaVuSans-74" x="1218.986328"/>
     <use xlink:href="#DejaVuSans-69" x="1258.195312"/>
     <use xlink:href="#DejaVuSans-74" x="1285.978516"/>
     <use xlink:href="#DejaVuSans-69" x="1325.1875"/>
     <use xlink:href="#DejaVuSans-6f" x="1352.970703"/>
     <use xlink:href="#DejaVuSans-6e" x="1414.152344"/>
     <use xlink:href="#DejaVuSans-73" x="1477.53125"/>
     <use xlink:href="#DejaVuSans-20" x="1529.630859"/>
     <use xlink:href="#DejaVuSans-3d" x="1561.417969"/>
     <use xlink:href="#DejaVuSans-20" x="1645.207031"/>
     <use xlink:href="#DejaVuSans-31" x="1676.994141"/>
     <use xlink:href="#DejaVuSans-30" x="1740.617188"/>
     <use xlink:href="#DejaVuSans-30" x="1804.240234"/>
    </g>
   </g>
   <g id="legend_1">
    <g id="patch_7">
     <path d="M 288.924688 295.519812 
L 407.72 295.519812 
Q 409.72 295.519812 409.72 293.519812 
L 409.72 48.472 
Q 409.72 46.472 407.72 46.472 
L 288.924688 46.472 
Q 286.924688 46.472 286.924688 48.472 
L 286.924688 293.519812 
Q 286.924688 295.519812 288.924688 295.519812 
z
" style="fill: #ffffff; opacity: 0.8; stroke: #cccccc; stroke-linejoin: miter"/>
    </g>
    <g id="line2d_45">
     <path d="M 290.924688 54.570437 
L 300.924688 54.570437 
L 310.924688 54.570437 
" style="fill: none; stroke: #5b69b8; stroke-width: 1.5; stroke-linecap: square"/>
    </g>
    <g id="text_19">
     <!-- C -->
     <g transform="translate(318.924688 58.070437)scale(0.1 -0.1)">
      <defs>
       <path id="DejaVuSans-43" d="M 4122 4306 
L 4122 3641 
Q 3803 3938 3442 4084 
Q 3081 4231 2675 4231 
Q 1875 4231 1450 3742 
Q 1025 3253 1025 2328 
Q 1025 1406 1450 917 
Q 1875 428 2675 428 
Q 3081 428 3442 575 
Q 3803 722 4122 1019 
L 4122 359 
Q 3791 134 3420 21 
Q 3050 -91 2638 -91 
Q 1578 -91 968 557 
Q 359 1206 359 2328 
Q 359 3453 968 4101 
Q 1578 4750 2638 4750 
Q 3056 4750 3426 4639 
Q 3797 4528 4122 4306 
z
" transform="scale(0.015625)"/>
      </defs>
      <use xlink:href="#DejaVuSans-43"/>
     </g>
    </g>
    <g id="line2d_46">
     <path d="M 290.924688 69.248562 
L 300.924688 69.248562 
L 310.924688 69.248562 
" style="fill: none; stroke: #652076; stroke-width: 1.5; stroke-linecap: square"/>
    </g>
    <g id="text_20">
     <!-- C# -->
     <g transform="translate(318.924688 72.748562)scale(0.1 -0.1)">
      <defs>
       <path id="DejaVuSans-23" d="M 3272 2816 
L 2363 2816 
L 2100 1772 
L 3016 1772 
L 3272 2816 
z
M 2803 4594 
L 2478 3297 
L 3391 3297 
L 3719 4594 
L 4219 4594 
L 3897 3297 
L 4872 3297 
L 4872 2816 
L 3775 2816 
L 3519 1772 
L 4513 1772 
L 4513 1294 
L 3397 1294 
L 3072 0 
L 2572 0 
L 2894 1294 
L 1978 1294 
L 1656 0 
L 1153 0 
L 1478 1294 
L 494 1294 
L 494 1772 
L 1594 1772 
L 1856 2816 
L 850 2816 
L 850 3297 
L 1978 3297 
L 2297 4594 
L 2803 4594 
z
" transform="scale(0.015625)"/>
      </defs>
      <use xlink:href="#DejaVuSans-43"/>
      <use xlink:href="#DejaVuSans-23" x="69.824219"/>
     </g>
    </g>
    <g id="line2d_47">
     <path d="M 290.924688 83.926688 
L 300.924688 83.926688 
L 310.924688 83.926688 
" style="fill: none; stroke: #63b132; stroke-width: 1.5; stroke-linecap: square"/>
    </g>
    <g id="text_21">
     <!-- Clojure -->
     <g transform="translate(318.924688 87.426688)scale(0.1 -0.1)">
      <defs>
       <path id="DejaVuSans-6c" d="M 603 4863 
L 1178 4863 
L 1178 0 
L 603 0 
L 603 4863 
z
" transform="scale(0.015625)"/>
       <path id="DejaVuSans-6a" d="M 603 3500 
L 1178 3500 
L 1178 -63 
Q 1178 -731 923 -1031 
Q 669 -1331 103 -1331 
L -116 -1331 
L -116 -844 
L 38 -844 
Q 366 -844 484 -692 
Q 603 -541 603 -63 
L 603 3500 
z
M 603 4863 
L 1178 4863 
L 1178 4134 
L 603 4134 
L 603 4863 
z
" transform="scale(0.015625)"/>
       <path id="DejaVuSans-75" d="M 544 1381 
L 544 3500 
L 1119 3500 
L 1119 1403 
Q 1119 906 1312 657 
Q 1506 409 1894 409 
Q 2359 409 2629 706 
Q 2900 1003 2900 1516 
L 2900 3500 
L 3475 3500 
L 3475 0 
L 2900 0 
L 2900 538 
Q 2691 219 2414 64 
Q 2138 -91 1772 -91 
Q 1169 -91 856 284 
Q 544 659 544 1381 
z
M 1991 3584 
L 1991 3584 
z
" transform="scale(0.015625)"/>
      </defs>
      <use xlink:href="#DejaVuSans-43"/>
      <use xlink:href="#DejaVuSans-6c" x="69.824219"/>
      <use xlink:href="#DejaVuSans-6f" x="97.607422"/>
      <use xlink:href="#DejaVuSans-6a" x="158.789062"/>
      <use xlink:href="#DejaVuSans-75" x="186.572266"/>
      <use xlink:href="#DejaVuSans-72" x="249.951172"/>
      <use xlink:href="#DejaVuSans-65" x="288.814453"/>
     </g>
    </g>
    <g id="line2d_48">
     <path d="M 290.924688 98.604812 
L 300.924688 98.604812 
L 310.924688 98.604812 
" style="fill: none; stroke: #70c8d6; stroke-width: 1.5; stroke-linecap: square"/>
    </g>
    <g id="text_22">
     <!-- Go -->
     <g transform="translate(318.924688 102.104812)scale(0.1 -0.1)">
      <defs>
       <path id="DejaVuSans-47" d="M 3809 666 
L 3809 1919 
L 2778 1919 
L 2778 2438 
L 4434 2438 
L 4434 434 
Q 4069 175 3628 42 
Q 3188 -91 2688 -91 
Q 1594 -91 976 548 
Q 359 1188 359 2328 
Q 359 3472 976 4111 
Q 1594 4750 2688 4750 
Q 3144 4750 3555 4637 
Q 3966 4525 4313 4306 
L 4313 3634 
Q 3963 3931 3569 4081 
Q 3175 4231 2741 4231 
Q 1884 4231 1454 3753 
Q 1025 3275 1025 2328 
Q 1025 1384 1454 906 
Q 1884 428 2741 428 
Q 3075 428 3337 486 
Q 3600 544 3809 666 
z
" transform="scale(0.015625)"/>
      </defs>
      <use xlink:href="#DejaVuSans-47"/>
      <use xlink:href="#DejaVuSans-6f" x="77.490234"/>
     </g>
    </g>
    <g id="line2d_49">
     <path d="M 290.924688 113.282937 
L 300.924688 113.282937 
L 310.924688 113.282937 
" style="fill: none; stroke: #f0931c; stroke-width: 1.5; stroke-linecap: square"/>
    </g>
    <g id="text_23">
     <!-- Java Array -->
     <g transform="translate(318.924688 116.782937)scale(0.1 -0.1)">
      <defs>
       <path id="DejaVuSans-4a" d="M 628 4666 
L 1259 4666 
L 1259 325 
Q 1259 -519 939 -900 
Q 619 -1281 -91 -1281 
L -331 -1281 
L -331 -750 
L -134 -750 
Q 284 -750 456 -515 
Q 628 -281 628 325 
L 628 4666 
z
" transform="scale(0.015625)"/>
       <path id="DejaVuSans-76" d="M 191 3500 
L 800 3500 
L 1894 563 
L 2988 3500 
L 3597 3500 
L 2284 0 
L 1503 0 
L 191 3500 
z
" transform="scale(0.015625)"/>
       <path id="DejaVuSans-41" d="M 2188 4044 
L 1331 1722 
L 3047 1722 
L 2188 4044 
z
M 1831 4666 
L 2547 4666 
L 4325 0 
L 3669 0 
L 3244 1197 
L 1141 1197 
L 716 0 
L 50 0 
L 1831 4666 
z
" transform="scale(0.015625)"/>
       <path id="DejaVuSans-79" d="M 2059 -325 
Q 1816 -950 1584 -1140 
Q 1353 -1331 966 -1331 
L 506 -1331 
L 506 -850 
L 844 -850 
Q 1081 -850 1212 -737 
Q 1344 -625 1503 -206 
L 1606 56 
L 191 3500 
L 800 3500 
L 1894 763 
L 2988 3500 
L 3597 3500 
L 2059 -325 
z
" transform="scale(0.015625)"/>
      </defs>
      <use xlink:href="#DejaVuSans-4a"/>
      <use xlink:href="#DejaVuSans-61" x="29.492188"/>
      <use xlink:href="#DejaVuSans-76" x="90.771484"/>
      <use xlink:href="#DejaVuSans-61" x="149.951172"/>
      <use xlink:href="#DejaVuSans-20" x="211.230469"/>
      <use xlink:href="#DejaVuSans-41" x="243.017578"/>
      <use xlink:href="#DejaVuSans-72" x="311.425781"/>
      <use xlink:href="#DejaVuSans-72" x="350.789062"/>
      <use xlink:href="#DejaVuSans-61" x="391.902344"/>
      <use xlink:href="#DejaVuSans-79" x="453.181641"/>
     </g>
    </g>
    <g id="line2d_50">
     <path d="M 290.924688 127.961062 
L 300.924688 127.961062 
L 310.924688 127.961062 
" style="fill: none; stroke-dasharray: 5.55,2.4; stroke-dashoffset: 0; stroke: #f0931c; stroke-width: 1.5"/>
    </g>
    <g id="text_24">
     <!-- Java Array List -->
     <g transform="translate(318.924688 131.461062)scale(0.1 -0.1)">
      <defs>
       <path id="DejaVuSans-4c" d="M 628 4666 
L 1259 4666 
L 1259 531 
L 3531 531 
L 3531 0 
L 628 0 
L 628 4666 
z
" transform="scale(0.015625)"/>
      </defs>
      <use xlink:href="#DejaVuSans-4a"/>
      <use xlink:href="#DejaVuSans-61" x="29.492188"/>
      <use xlink:href="#DejaVuSans-76" x="90.771484"/>
      <use xlink:href="#DejaVuSans-61" x="149.951172"/>
      <use xlink:href="#DejaVuSans-20" x="211.230469"/>
      <use xlink:href="#DejaVuSans-41" x="243.017578"/>
      <use xlink:href="#DejaVuSans-72" x="311.425781"/>
      <use xlink:href="#DejaVuSans-72" x="350.789062"/>
      <use xlink:href="#DejaVuSans-61" x="391.902344"/>
      <use xlink:href="#DejaVuSans-79" x="453.181641"/>
      <use xlink:href="#DejaVuSans-20" x="512.361328"/>
      <use xlink:href="#DejaVuSans-4c" x="544.148438"/>
      <use xlink:href="#DejaVuSans-69" x="599.861328"/>
      <use xlink:href="#DejaVuSans-73" x="627.644531"/>
      <use xlink:href="#DejaVuSans-74" x="679.744141"/>
     </g>
    </g>
    <g id="line2d_51">
     <path d="M 290.924688 142.639187 
L 300.924688 142.639187 
L 310.924688 142.639187 
" style="fill: none; stroke-dasharray: 1.5,2.475; stroke-dashoffset: 0; stroke: #f0931c; stroke-width: 1.5"/>
    </g>
    <g id="text_25">
     <!-- Java Linked List -->
     <g transform="translate(318.924688 146.139187)scale(0.1 -0.1)">
      <defs>
       <path id="DejaVuSans-6b" d="M 581 4863 
L 1159 4863 
L 1159 1991 
L 2875 3500 
L 3609 3500 
L 1753 1863 
L 3688 0 
L 2938 0 
L 1159 1709 
L 1159 0 
L 581 0 
L 581 4863 
z
" transform="scale(0.015625)"/>
       <path id="DejaVuSans-64" d="M 2906 2969 
L 2906 4863 
L 3481 4863 
L 3481 0 
L 2906 0 
L 2906 525 
Q 2725 213 2448 61 
Q 2172 -91 1784 -91 
Q 1150 -91 751 415 
Q 353 922 353 1747 
Q 353 2572 751 3078 
Q 1150 3584 1784 3584 
Q 2172 3584 2448 3432 
Q 2725 3281 2906 2969 
z
M 947 1747 
Q 947 1113 1208 752 
Q 1469 391 1925 391 
Q 2381 391 2643 752 
Q 2906 1113 2906 1747 
Q 2906 2381 2643 2742 
Q 2381 3103 1925 3103 
Q 1469 3103 1208 2742 
Q 947 2381 947 1747 
z
" transform="scale(0.015625)"/>
      </defs>
      <use xlink:href="#DejaVuSans-4a"/>
      <use xlink:href="#DejaVuSans-61" x="29.492188"/>
      <use xlink:href="#DejaVuSans-76" x="90.771484"/>
      <use xlink:href="#DejaVuSans-61" x="149.951172"/>
      <use xlink:href="#DejaVuSans-20" x="211.230469"/>
      <use xlink:href="#DejaVuSans-4c" x="243.017578"/>
      <use xlink:href="#DejaVuSans-69" x="298.730469"/>
      <use xlink:href="#DejaVuSans-6e" x="326.513672"/>
      <use xlink:href="#DejaVuSans-6b" x="389.892578"/>
      <use xlink:href="#DejaVuSans-65" x="444.177734"/>
      <use xlink:href="#DejaVuSans-64" x="505.701172"/>
      <use xlink:href="#DejaVuSans-20" x="569.177734"/>
      <use xlink:href="#DejaVuSans-4c" x="600.964844"/>
      <use xlink:href="#DejaVuSans-69" x="656.677734"/>
      <use xlink:href="#DejaVuSans-73" x="684.460938"/>
      <use xlink:href="#DejaVuSans-74" x="736.560547"/>
     </g>
    </g>
    <g id="line2d_52">
     <path d="M 290.924688 157.317312 
L 300.924688 157.317312 
L 310.924688 157.317312 
" style="fill: none; stroke-dasharray: 5.55,2.4; stroke-dashoffset: 0; stroke: #a57e6a; stroke-width: 1.5"/>
    </g>
    <g id="text_26">
     <!-- Java Mixed Array -->
     <g transform="translate(318.924688 160.817312)scale(0.1 -0.1)">
      <defs>
       <path id="DejaVuSans-4d" d="M 628 4666 
L 1569 4666 
L 2759 1491 
L 3956 4666 
L 4897 4666 
L 4897 0 
L 4281 0 
L 4281 4097 
L 3078 897 
L 2444 897 
L 1241 4097 
L 1241 0 
L 628 0 
L 628 4666 
z
" transform="scale(0.015625)"/>
      </defs>
      <use xlink:href="#DejaVuSans-4a"/>
      <use xlink:href="#DejaVuSans-61" x="29.492188"/>
      <use xlink:href="#DejaVuSans-76" x="90.771484"/>
      <use xlink:href="#DejaVuSans-61" x="149.951172"/>
      <use xlink:href="#DejaVuSans-20" x="211.230469"/>
      <use xlink:href="#DejaVuSans-4d" x="243.017578"/>
      <use xlink:href="#DejaVuSans-69" x="329.296875"/>
      <use xlink:href="#DejaVuSans-78" x="357.080078"/>
      <use xlink:href="#DejaVuSans-65" x="413.134766"/>
      <use xlink:href="#DejaVuSans-64" x="474.658203"/>
      <use xlink:href="#DejaVuSans-20" x="538.134766"/>
      <use xlink:href="#DejaVuSans-41" x="569.921875"/>
      <use xlink:href="#DejaVuSans-72" x="638.330078"/>
      <use xlink:href="#DejaVuSans-72" x="677.693359"/>
      <use xlink:href="#DejaVuSans-61" x="718.806641"/>
      <use xlink:href="#DejaVuSans-79" x="780.085938"/>
     </g>
    </g>
    <g id="line2d_53">
     <path d="M 290.924688 171.995437 
L 300.924688 171.995437 
L 310.924688 171.995437 
" style="fill: none; stroke: #a57e6a; stroke-width: 1.5; stroke-linecap: square"/>
    </g>
    <g id="text_27">
     <!-- Java Native Array -->
     <g transform="translate(318.924688 175.495437)scale(0.1 -0.1)">
      <defs>
       <path id="DejaVuSans-4e" d="M 628 4666 
L 1478 4666 
L 3547 763 
L 3547 4666 
L 4159 4666 
L 4159 0 
L 3309 0 
L 1241 3903 
L 1241 0 
L 628 0 
L 628 4666 
z
" transform="scale(0.015625)"/>
      </defs>
      <use xlink:href="#DejaVuSans-4a"/>
      <use xlink:href="#DejaVuSans-61" x="29.492188"/>
      <use xlink:href="#DejaVuSans-76" x="90.771484"/>
      <use xlink:href="#DejaVuSans-61" x="149.951172"/>
      <use xlink:href="#DejaVuSans-20" x="211.230469"/>
      <use xlink:href="#DejaVuSans-4e" x="243.017578"/>
      <use xlink:href="#DejaVuSans-61" x="317.822266"/>
      <use xlink:href="#DejaVuSans-74" x="379.101562"/>
      <use xlink:href="#DejaVuSans-69" x="418.310547"/>
      <use xlink:href="#DejaVuSans-76" x="446.09375"/>
      <use xlink:href="#DejaVuSans-65" x="505.273438"/>
      <use xlink:href="#DejaVuSans-20" x="566.796875"/>
      <use xlink:href="#DejaVuSans-41" x="598.583984"/>
      <use xlink:href="#DejaVuSans-72" x="666.992188"/>
      <use xlink:href="#DejaVuSans-72" x="706.355469"/>
      <use xlink:href="#DejaVuSans-61" x="747.46875"/>
      <use xlink:href="#DejaVuSans-79" x="808.748047"/>
     </g>
    </g>
    <g id="line2d_54">
     <path d="M 290.924688 193.312312 
L 300.924688 193.312312 
L 310.924688 193.312312 
" style="fill: none; stroke-dasharray: 9.6,2.4,1.5,2.4; stroke-dashoffset: 0; stroke: #f0931c; stroke-width: 1.5"/>
    </g>
    <g id="text_28">
     <!-- Java Array List -->
     <g transform="translate(318.924688 190.173562)scale(0.1 -0.1)">
      <use xlink:href="#DejaVuSans-4a"/>
      <use xlink:href="#DejaVuSans-61" x="29.492188"/>
      <use xlink:href="#DejaVuSans-76" x="90.771484"/>
      <use xlink:href="#DejaVuSans-61" x="149.951172"/>
      <use xlink:href="#DejaVuSans-20" x="211.230469"/>
      <use xlink:href="#DejaVuSans-41" x="243.017578"/>
      <use xlink:href="#DejaVuSans-72" x="311.425781"/>
      <use xlink:href="#DejaVuSans-72" x="350.789062"/>
      <use xlink:href="#DejaVuSans-61" x="391.902344"/>
      <use xlink:href="#DejaVuSans-79" x="453.181641"/>
      <use xlink:href="#DejaVuSans-20" x="512.361328"/>
      <use xlink:href="#DejaVuSans-4c" x="544.148438"/>
      <use xlink:href="#DejaVuSans-69" x="599.861328"/>
      <use xlink:href="#DejaVuSans-73" x="627.644531"/>
      <use xlink:href="#DejaVuSans-74" x="679.744141"/>
     </g>
     <!-- Prealloc Size -->
     <g transform="translate(318.924688 201.371375)scale(0.1 -0.1)">
      <defs>
       <path id="DejaVuSans-50" d="M 1259 4147 
L 1259 2394 
L 2053 2394 
Q 2494 2394 2734 2622 
Q 2975 2850 2975 3272 
Q 2975 3691 2734 3919 
Q 2494 4147 2053 4147 
L 1259 4147 
z
M 628 4666 
L 2053 4666 
Q 2838 4666 3239 4311 
Q 3641 3956 3641 3272 
Q 3641 2581 3239 2228 
Q 2838 1875 2053 1875 
L 1259 1875 
L 1259 0 
L 628 0 
L 628 4666 
z
" transform="scale(0.015625)"/>
       <path id="DejaVuSans-63" d="M 3122 3366 
L 3122 2828 
Q 2878 2963 2633 3030 
Q 2388 3097 2138 3097 
Q 1578 3097 1268 2742 
Q 959 2388 959 1747 
Q 959 1106 1268 751 
Q 1578 397 2138 397 
Q 2388 397 2633 464 
Q 2878 531 3122 666 
L 3122 134 
Q 2881 22 2623 -34 
Q 2366 -91 2075 -91 
Q 1284 -91 818 406 
Q 353 903 353 1747 
Q 353 2603 823 3093 
Q 1294 3584 2113 3584 
Q 2378 3584 2631 3529 
Q 2884 3475 3122 3366 
z
" transform="scale(0.015625)"/>
       <path id="DejaVuSans-53" d="M 3425 4513 
L 3425 3897 
Q 3066 4069 2747 4153 
Q 2428 4238 2131 4238 
Q 1616 4238 1336 4038 
Q 1056 3838 1056 3469 
Q 1056 3159 1242 3001 
Q 1428 2844 1947 2747 
L 2328 2669 
Q 3034 2534 3370 2195 
Q 3706 1856 3706 1288 
Q 3706 609 3251 259 
Q 2797 -91 1919 -91 
Q 1588 -91 1214 -16 
Q 841 59 441 206 
L 441 856 
Q 825 641 1194 531 
Q 1563 422 1919 422 
Q 2459 422 2753 634 
Q 3047 847 3047 1241 
Q 3047 1584 2836 1778 
Q 2625 1972 2144 2069 
L 1759 2144 
Q 1053 2284 737 2584 
Q 422 2884 422 3419 
Q 422 4038 858 4394 
Q 1294 4750 2059 4750 
Q 2388 4750 2728 4690 
Q 3069 4631 3425 4513 
z
" transform="scale(0.015625)"/>
       <path id="DejaVuSans-7a" d="M 353 3500 
L 3084 3500 
L 3084 2975 
L 922 459 
L 3084 459 
L 3084 0 
L 275 0 
L 275 525 
L 2438 3041 
L 353 3041 
L 353 3500 
z
" transform="scale(0.015625)"/>
      </defs>
      <use xlink:href="#DejaVuSans-50"/>
      <use xlink:href="#DejaVuSans-72" x="58.552734"/>
      <use xlink:href="#DejaVuSans-65" x="97.416016"/>
      <use xlink:href="#DejaVuSans-61" x="158.939453"/>
      <use xlink:href="#DejaVuSans-6c" x="220.21875"/>
      <use xlink:href="#DejaVuSans-6c" x="248.001953"/>
      <use xlink:href="#DejaVuSans-6f" x="275.785156"/>
      <use xlink:href="#DejaVuSans-63" x="336.966797"/>
      <use xlink:href="#DejaVuSans-20" x="391.947266"/>
      <use xlink:href="#DejaVuSans-53" x="423.734375"/>
      <use xlink:href="#DejaVuSans-69" x="487.210938"/>
      <use xlink:href="#DejaVuSans-7a" x="514.994141"/>
      <use xlink:href="#DejaVuSans-65" x="567.484375"/>
     </g>
    </g>
    <g id="line2d_55">
     <path d="M 290.924688 212.5495 
L 300.924688 212.5495 
L 310.924688 212.5495 
" style="fill: none; stroke: #ff007f; stroke-width: 1.5; stroke-linecap: square"/>
    </g>
    <g id="text_29">
     <!-- Kotlin -->
     <g transform="translate(318.924688 216.0495)scale(0.1 -0.1)">
      <defs>
       <path id="DejaVuSans-4b" d="M 628 4666 
L 1259 4666 
L 1259 2694 
L 3353 4666 
L 4166 4666 
L 1850 2491 
L 4331 0 
L 3500 0 
L 1259 2247 
L 1259 0 
L 628 0 
L 628 4666 
z
" transform="scale(0.015625)"/>
      </defs>
      <use xlink:href="#DejaVuSans-4b"/>
      <use xlink:href="#DejaVuSans-6f" x="60.576172"/>
      <use xlink:href="#DejaVuSans-74" x="121.757812"/>
      <use xlink:href="#DejaVuSans-6c" x="160.966797"/>
      <use xlink:href="#DejaVuSans-69" x="188.75"/>
      <use xlink:href="#DejaVuSans-6e" x="216.533203"/>
     </g>
    </g>
    <g id="line2d_56">
     <path d="M 290.924688 227.227625 
L 300.924688 227.227625 
L 310.924688 227.227625 
" style="fill: none; stroke: #00007c; stroke-width: 1.5; stroke-linecap: square"/>
    </g>
    <g id="text_30">
     <!-- Lua -->
     <g transform="translate(318.924688 230.727625)scale(0.1 -0.1)">
      <use xlink:href="#DejaVuSans-4c"/>
      <use xlink:href="#DejaVuSans-75" x="53.962891"/>
      <use xlink:href="#DejaVuSans-61" x="117.341797"/>
     </g>
    </g>
    <g id="line2d_57">
     <path d="M 290.924688 241.90575 
L 300.924688 241.90575 
L 310.924688 241.90575 
" style="fill: none; stroke: #f7cc40; stroke-width: 1.5; stroke-linecap: square"/>
    </g>
    <g id="text_31">
     <!-- Python -->
     <g transform="translate(318.924688 245.40575)scale(0.1 -0.1)">
      <defs>
       <path id="DejaVuSans-68" d="M 3513 2113 
L 3513 0 
L 2938 0 
L 2938 2094 
Q 2938 2591 2744 2837 
Q 2550 3084 2163 3084 
Q 1697 3084 1428 2787 
Q 1159 2491 1159 1978 
L 1159 0 
L 581 0 
L 581 4863 
L 1159 4863 
L 1159 2956 
Q 1366 3272 1645 3428 
Q 1925 3584 2291 3584 
Q 2894 3584 3203 3211 
Q 3513 2838 3513 2113 
z
" transform="scale(0.015625)"/>
      </defs>
      <use xlink:href="#DejaVuSans-50"/>
      <use xlink:href="#DejaVuSans-79" x="60.302734"/>
      <use xlink:href="#DejaVuSans-74" x="119.482422"/>
      <use xlink:href="#DejaVuSans-68" x="158.691406"/>
      <use xlink:href="#DejaVuSans-6f" x="222.070312"/>
      <use xlink:href="#DejaVuSans-6e" x="283.251953"/>
     </g>
    </g>
    <g id="line2d_58">
     <path d="M 290.924688 256.583875 
L 300.924688 256.583875 
L 310.924688 256.583875 
" style="fill: none; stroke: #dd3516; stroke-width: 1.5; stroke-linecap: square"/>
    </g>
    <g id="text_32">
     <!-- Rust -->
     <g transform="translate(318.924688 260.083875)scale(0.1 -0.1)">
      <use xlink:href="#DejaVuSans-52"/>
      <use xlink:href="#DejaVuSans-75" x="64.982422"/>
      <use xlink:href="#DejaVuSans-73" x="128.361328"/>
      <use xlink:href="#DejaVuSans-74" x="180.460938"/>
     </g>
    </g>
    <g id="line2d_59">
     <path d="M 290.924688 271.262 
L 300.924688 271.262 
L 310.924688 271.262 
" style="fill: none; stroke-dasharray: 5.55,2.4; stroke-dashoffset: 0; stroke: #0076c6; stroke-width: 1.5"/>
    </g>
    <g id="text_33">
     <!-- TypeScript Deno -->
     <g transform="translate(318.924688 274.762)scale(0.1 -0.1)">
      <defs>
       <path id="DejaVuSans-44" d="M 1259 4147 
L 1259 519 
L 2022 519 
Q 2988 519 3436 956 
Q 3884 1394 3884 2338 
Q 3884 3275 3436 3711 
Q 2988 4147 2022 4147 
L 1259 4147 
z
M 628 4666 
L 1925 4666 
Q 3281 4666 3915 4102 
Q 4550 3538 4550 2338 
Q 4550 1131 3912 565 
Q 3275 0 1925 0 
L 628 0 
L 628 4666 
z
" transform="scale(0.015625)"/>
      </defs>
      <use xlink:href="#DejaVuSans-54"/>
      <use xlink:href="#DejaVuSans-79" x="45.458984"/>
      <use xlink:href="#DejaVuSans-70" x="104.638672"/>
      <use xlink:href="#DejaVuSans-65" x="168.115234"/>
      <use xlink:href="#DejaVuSans-53" x="229.638672"/>
      <use xlink:href="#DejaVuSans-63" x="293.115234"/>
      <use xlink:href="#DejaVuSans-72" x="348.095703"/>
      <use xlink:href="#DejaVuSans-69" x="389.208984"/>
      <use xlink:href="#DejaVuSans-70" x="416.992188"/>
      <use xlink:href="#DejaVuSans-74" x="480.46875"/>
      <use xlink:href="#DejaVuSans-20" x="519.677734"/>
      <use xlink:href="#DejaVuSans-44" x="551.464844"/>
      <use xlink:href="#DejaVuSans-65" x="628.466797"/>
      <use xlink:href="#DejaVuSans-6e" x="689.990234"/>
      <use xlink:href="#DejaVuSans-6f" x="753.369141"/>
     </g>
    </g>
    <g id="line2d_60">
     <path d="M 290.924688 285.940125 
L 300.924688 285.940125 
L 310.924688 285.940125 
" style="fill: none; stroke: #0076c6; stroke-width: 1.5; stroke-linecap: square"/>
    </g>
    <g id="text_34">
     <!-- Typescript Node -->
     <g transform="translate(318.924688 289.440125)scale(0.1 -0.1)">
      <use xlink:href="#DejaVuSans-54"/>
      <use xlink:href="#DejaVuSans-79" x="45.458984"/>
      <use xlink:href="#DejaVuSans-70" x="104.638672"/>
      <use xlink:href="#DejaVuSans-65" x="168.115234"/>
      <use xlink:href="#DejaVuSans-73" x="229.638672"/>
      <use xlink:href="#DejaVuSans-63" x="281.738281"/>
      <use xlink:href="#DejaVuSans-72" x="336.71875"/>
      <use xlink:href="#DejaVuSans-69" x="377.832031"/>
      <use xlink:href="#DejaVuSans-70" x="405.615234"/>
      <use xlink:href="#DejaVuSans-74" x="469.091797"/>
      <use xlink:href="#DejaVuSans-20" x="508.300781"/>
      <use xlink:href="#DejaVuSans-4e" x="540.087891"/>
      <use xlink:href="#DejaVuSans-6f" x="614.892578"/>
      <use xlink:href="#DejaVuSans-64" x="676.074219"/>
      <use xlink:href="#DejaVuSans-65" x="739.550781"/>
     </g>
    </g>
   </g>
  </g>
 </g>
 <defs>
  <clipPath id="pb5a3c09934">
   <rect x="57.6" y="41.472" width="357.12" height="266.112"/>
  </clipPath>
 </defs>
</svg>
